Coordinates
version=1
nRows=30
nColumns=38
inDegrees=no

Units are S.I. units (second, meters, Newtons, ...)
If the header above contains a line with 'inDegrees', this indicates whether rotational values are in degrees (yes) or radians (no).

endheader
time	pelvis_tilt	pelvis_list	pelvis_rotation	pelvis_tx	pelvis_ty	pelvis_tz	hip_flexion_r	hip_adduction_r	hip_rotation_r	knee_angle_r	ankle_angle_r	subtalar_angle_r	mtp_angle_r	hip_flexion_l	hip_adduction_l	hip_rotation_l	knee_angle_l	ankle_angle_l	subtalar_angle_l	mtp_angle_l	lumbar_extension	lumbar_bending	lumbar_rotation	arm_flex_r	arm_add_r	arm_rot_r	elbow_flex_r	pro_sup_r	wrist_flex_r	wrist_dev_r	arm_flex_l	arm_add_l	arm_rot_l	elbow_flex_l	pro_sup_l	wrist_flex_l	wrist_dev_l
1.25	1.65877	1.431	0.0531405	0.736589	0.331313	0.989675	0.304901	0.0728276	-0.469976	0.326026	-0.0129727	0	0	-0.0580781	-0.228654	-0.0779783	0.778995	0.0243672	0	0	-0.170512	0.209896	-0.0574847	-0.0670624	-0.218547	-0.0430332	0.40757	1.41837	0	0	0.00321124	-0.232155	0.434673	0.354204	1.26441	0	0
1.26	1.64153	1.4251	0.0780475	0.737261	0.339694	0.990157	0.299922	0.0806197	-0.468764	0.327344	-0.00522623	0	0	-0.0235252	-0.237043	-0.0557052	0.833591	0.00625007	0	0	-0.164163	0.21619	-0.0646597	-0.0730489	-0.222138	-0.0256444	0.419743	1.38721	0	0	-0.00326054	-0.25748	0.553186	0.396254	1.10253	0	0
1.27	1.63013	1.42137	0.0943651	0.738024	0.347986	0.990861	0.293788	0.0863804	-0.465951	0.328663	0.00349734	0	0	0.0084934	-0.242061	-0.0374707	0.884863	-0.0030883	0	0	-0.160273	0.2204	-0.0699707	-0.0735736	-0.221917	-0.0312924	0.421969	1.39443	0	0	-0.00425847	-0.257993	0.550229	0.398154	1.10643	0	0
1.28	1.59895	1.41896	0.129192	0.738872	0.356016	0.991397	0.291017	0.0901489	-0.464221	0.330336	0.0120115	0	0	0.0438232	-0.244811	-0.0213891	0.935256	-0.00119271	0	0	-0.153911	0.222775	-0.074013	-0.0681603	-0.215827	-0.0705174	0.41038	1.45143	0	0	-0.00532816	-0.253981	0.5235	0.394849	1.1413	0	0
1.29	1.59455	1.41846	0.133674	0.739874	0.363825	0.992424	0.28251	0.0939091	-0.459503	0.329056	0.0187325	0	0	0.0722891	-0.246189	-0.012092	0.98124	0.0074698	0	0	-0.153832	0.223213	-0.0736246	-0.0634985	-0.214994	-0.071568	0.403302	1.45032	0	0	-0.00490983	-0.25405	0.520414	0.397367	1.14142	0	0
1.3	1.59736	1.41887	0.128642	0.740994	0.371504	0.993712	0.271502	0.0980262	-0.453777	0.325011	0.0243789	0	0	0.0978243	-0.247218	-0.00726596	1.02266	0.0198451	0	0	-0.156082	0.222687	-0.0704215	-0.0564525	-0.213746	-0.0716096	0.392163	1.44783	0	0	-0.00326001	-0.253854	0.518423	0.398846	1.14116	0	0
1.31	1.6074	1.41969	0.115165	0.742145	0.379243	0.995177	0.257783	0.102731	-0.447955	0.318084	0.0290907	0	0	0.12009	-0.248373	-0.0052745	1.05776	0.0323506	0	0	-0.159557	0.22171	-0.0656751	-0.0480633	-0.212317	-0.0700513	0.377934	1.444	0	0	-0.00104809	-0.253586	0.517668	0.399337	1.1404	0	0
1.32	1.6214	1.42063	0.0970276	0.74328	0.387033	0.996675	0.242052	0.107963	-0.44181	0.308421	0.032646	0	0	0.140059	-0.249567	-0.00503685	1.08691	0.0419373	0	0	-0.16342	0.220504	-0.0599108	-0.0391775	-0.210916	-0.0664972	0.362099	1.43912	0	0	0.00178988	-0.253086	0.517916	0.398692	1.13865	0	0
1.33	1.64023	1.42419	0.077834	0.744894	0.394785	0.997953	0.227868	0.115704	-0.429613	0.300176	0.0321435	0	0	0.160829	-0.256773	-0.00389624	1.11065	0.0558613	0	0	-0.166955	0.215466	-0.0559529	-0.0317596	-0.20793	-0.0610737	0.346717	1.43336	0	0	0.00614558	-0.25429	0.519494	0.397145	1.13606	0	0
1.34	1.63147	1.42403	0.0783195	0.745338	0.402242	0.999133	0.213026	0.115533	-0.433025	0.288145	0.0399039	0	0	0.180916	-0.248112	-0.00354557	1.13139	0.0575944	0	0	-0.167961	0.216514	-0.0478718	-0.024116	-0.209046	-0.0541707	0.335822	1.42712	0	0	0.00899184	-0.252349	0.522187	0.396083	1.13351	0	0
1.35	1.62604	1.4286	0.0829794	0.74695	0.409561	0.99985	0.204404	0.121346	-0.422683	0.28246	0.0380055	0	0	0.205468	-0.253341	6.34436e-05	1.14795	0.0695571	0	0	-0.167944	0.210134	-0.0429679	-0.0170355	-0.205658	-0.056105	0.319369	1.4297	0	0	0.0142317	-0.258063	0.547954	0.400174	1.10062	0	0
1.36	1.61465	1.43175	0.0892388	0.747858	0.416818	1.00056	0.194976	0.121946	-0.421186	0.277334	0.0406907	0	0	0.22711	-0.249144	0.00316635	1.15998	0.073715	0	0	-0.168159	0.206757	-0.0360839	-0.0126189	-0.205961	-0.0503499	0.312339	1.42226	0	0	0.018816	-0.25854	0.554824	0.399228	1.09647	0	0
1.37	1.57854	1.43734	0.125788	0.748973	0.42264	1.00125	0.191487	0.117765	-0.418866	0.274631	0.0412581	0	0	0.255825	-0.24733	-0.00266262	1.16901	0.0748399	0	0	-0.167366	0.200822	-0.0351399	-0.00650864	-0.205278	-0.0452505	0.308557	1.41383	0	0	0.0261311	-0.260584	0.561969	0.399225	1.09244	0	0
1.38	1.61801	1.43782	0.0771513	0.749538	0.431236	1.00189	0.173461	0.123089	-0.41312	0.268318	0.0441162	0	0	0.263976	-0.24147	0.00795733	1.17092	0.0828697	0	0	-0.172752	0.200681	-0.0243952	-0.00724312	-0.207851	-0.0406989	0.309752	1.406	0	0	0.0272436	-0.261182	0.568202	0.400955	1.08909	0	0
1.39	1.61679	1.44232	0.0747359	0.750303	0.43835	1.0025	0.164475	0.12134	-0.409056	0.26641	0.046793	0	0	0.28161	-0.235966	0.00936691	1.1703	0.0874242	0	0	-0.174592	0.195971	-0.0201763	-0.00550126	-0.208745	-0.0361187	0.311349	1.39869	0	0	0.0309478	-0.262955	0.573344	0.402497	1.08644	0	0
1.4	1.61752	1.44737	0.0701795	0.750946	0.445534	1.00315	0.155223	0.118825	-0.403225	0.264697	0.0493557	0	0	0.298075	-0.229553	0.0103785	1.16588	0.0900989	0	0	-0.176805	0.191096	-0.0164414	0.00211037	-0.204664	-0.0763289	0.300505	1.45525	0	0	0.0354584	-0.256164	0.539078	0.390466	1.13752	0	0
1.41	1.63072	1.45324	0.0524791	0.751516	0.452669	1.00387	0.144381	0.115428	-0.395081	0.262772	0.0526579	0	0	0.311818	-0.222108	0.0101436	1.15817	0.0921707	0	0	-0.180525	0.18517	-0.0122239	0.00423965	-0.205125	-0.0774925	0.301779	1.45554	0	0	0.0386162	-0.257697	0.54276	0.392634	1.13509	0	0
1.42	1.65361	1.45903	0.025242	0.752051	0.459782	1.00465	0.132311	0.112201	-0.386468	0.260216	0.0560531	0	0	0.323913	-0.214693	0.00974066	1.14756	0.0935234	0	0	-0.185277	0.179304	-0.00846083	0.00654413	-0.205221	-0.0789803	0.303288	1.45454	0	0	0.04178	-0.259193	0.545857	0.39475	1.13197	0	0
1.43	1.70356	1.46459	-0.0293635	0.752545	0.466899	1.00557	0.117147	0.109125	-0.378345	0.257215	0.0602417	0	0	0.332295	-0.207519	0.00872523	1.13446	0.0944773	0	0	-0.192643	0.173544	-0.00476834	0.00174429	-0.211984	-0.0222958	0.321188	1.3725	0	0	0.0438631	-0.268048	0.582484	0.408741	1.07905	0	0
1.44	1.74294	1.46956	-0.0729696	0.75295	0.473961	1.00641	0.103511	0.106409	-0.371265	0.253576	0.0633837	0	0	0.34231	-0.20092	0.00776314	1.11923	0.0954717	0	0	-0.198605	0.168531	-0.00177161	0.00544996	-0.211308	-0.0255819	0.320735	1.3765	0	0	0.0473547	-0.268337	0.582587	0.408155	1.07915	0	0
1.45	1.79258	1.47466	-0.126834	0.753319	0.480935	1.00724	0.0891472	0.103094	-0.364872	0.249802	0.0674483	0	0	0.350859	-0.19372	0.00653777	1.10133	0.0965776	0	0	-0.205409	0.163035	0.000798716	0.0103534	-0.210462	-0.0281531	0.319056	1.3795	0	0	0.0514868	-0.268414	0.583122	0.406565	1.07819	0	0
1.46	1.84431	1.47965	-0.182083	0.753636	0.487747	1.00799	0.0750939	0.0995013	-0.359528	0.245588	0.0718948	0	0	0.359337	-0.186354	0.00472109	1.08108	0.0983075	0	0	-0.212072	0.157461	0.00229662	0.0166957	-0.208998	-0.0303806	0.315403	1.38181	0	0	0.0563403	-0.268386	0.58388	0.403804	1.07683	0	0
1.47	1.90497	1.48469	-0.245913	0.753978	0.49443	1.00878	0.060788	0.09541	-0.354521	0.240868	0.076045	0	0	0.366855	-0.178925	0.0020706	1.05811	0.100008	0	0	-0.219259	0.15128	0.00326446	0.0241114	-0.206979	-0.0325405	0.310472	1.3839	0	0	0.0619387	-0.26835	0.584809	0.400094	1.07541	0	0
1.48	1.96803	1.48942	-0.312051	0.754287	0.501071	1.00948	0.0472999	0.0910176	-0.350162	0.236907	0.0804539	0	0	0.373992	-0.172613	-0.00310494	1.03298	0.100568	0	0	-0.226107	0.145034	0.00412752	0.0311181	-0.20501	-0.0352828	0.306318	1.38665	0	0	0.0681694	-0.267859	0.586302	0.395178	1.07384	0	0
1.49	2.11116	1.49911	-0.457228	0.754714	0.506909	1.01107	0.0323556	0.0785568	-0.346687	0.234189	0.0840138	0	0	0.378849	-0.161538	-0.0156902	1.00536	0.0949738	0	0	-0.239068	0.130577	0.00328163	0.0414388	-0.200459	-0.039033	0.301309	1.38952	0	0	0.0787124	-0.268625	0.587767	0.388533	1.07253	0	0
1.5	1.69468	1.54752	-0.0469398	0.754714	0.515405	1.00462	0.0597945	0.0370881	-0.316907	0.244839	0.121653	0	0	0.420253	-0.114573	-0.0273681	0.986518	0.107952	0	0	-0.194233	0.0843141	-0.00300133	0.029306	-0.192423	-0.0453384	0.303204	1.39352	0	0	0.0662299	-0.280815	0.591214	0.397091	1.07241	0	0
1.51	1.52841	1.5521	0.107989	0.754542	0.52203	1.00438	0.0559056	0.026282	-0.322006	0.246603	0.136078	0	0	0.431764	-0.10335	-0.0377232	0.960102	0.103269	0	0	-0.19308	0.0798916	0.00379604	0.0292099	-0.195503	-0.0303604	0.313053	1.36856	0	0	0.0677366	-0.290527	0.641931	0.413821	1.00632	0	0
1.52	1.62717	1.55851	0.00862103	0.755639	0.528784	1.0045	0.0466683	0.0270216	-0.30818	0.245184	0.136221	0	0	0.439471	-0.109541	-0.0554606	0.928795	0.110957	0	0	-0.198052	0.071806	0.00574335	0.0365391	-0.186407	-0.0894492	0.303306	1.44199	0	0	0.0758867	-0.281641	0.597711	0.393171	1.06798	0	0
1.53	1.76739	1.56232	-0.137979	0.755923	0.535387	1.00457	0.0364825	0.0241637	-0.303068	0.241428	0.142044	0	0	0.445599	-0.108932	-0.0698422	0.897953	0.108839	0	0	-0.202564	0.0672766	0.0101144	0.0395856	-0.185998	-0.0896847	0.306514	1.44003	0	0	0.0801138	-0.280377	0.591775	0.38976	1.07022	0	0
1.54	2.34565	1.55924	-0.721821	0.756342	0.542103	1.00523	0.0195652	0.0261672	-0.297408	0.235147	0.143112	0	0	0.445249	-0.112519	-0.0837162	0.865823	0.106702	0	0	-0.213679	0.0672115	0.0144879	0.0447604	-0.186083	-0.0884167	0.307815	1.43836	0	0	0.085862	-0.27827	0.585087	0.384875	1.07077	0	0
